#!OML:ASF F:\VICON\USERDATA\INSTALL\rory7\rory7.ASF
:FULLY-SPECIFIED
:DEGREES
702
root 0.420494 18.8356 2.50662 -3.79165 -4.24493 1.81998
lowerback 5.03832 1.45014 -2.54649
upperback 0.838275 1.76532 -1.29261
thorax -1.99744 0.893473 -0.0189656
lowerneck -3.56113 -4.08108 -6.93555
upperneck 20.0051 -6.4164 7.87908
head 7.15113 -2.98471 3.25115
rclavicle -1.57739e-014 2.8625e-014
rhumerus -9.18599 30.8015 -78.3706
rradius 128.062
rwrist -23.9908
rhand -35.6424 -1.70295
rfingers 7.12502
rthumb -8.76477 -31.501
lclavicle -1.57739e-014 2.8625e-014
lhumerus -34.6585 18.3676 69.4286
lradius 21.7955
lwrist -11.1995
lhand -26.6886 24.9391
lfingers 7.12502
lthumb -0.11931 54.9188
rfemur 7.59282 18.5523 17.0511
rtibia 8.701
rfoot -11.8127 -22.7922
rtoes -6.04405
lfemur 6.59475 -9.8184 -19.673
ltibia 8.53976
lfoot -10.2372 18.0048
ltoes -6.09644
703
root 0.417305 18.8356 2.504 -3.76794 -4.01234 1.83539
lowerback 5.0686 1.41899 -2.58316
upperback 0.822899 1.71987 -1.31501
thorax -2.02971 0.871356 -0.0194373
lowerneck -3.60053 -4.18528 -6.80754
upperneck 20.3169 -6.53922 7.60776
head 7.25784 -3.05174 3.1313
rclavicle -7.36901e-015 -1.51076e-014
rhumerus -10.3192 30.8046 -79.0683
rradius 127.571
rwrist -23.9476
rhand -35.8196 -2.94602
rfingers 7.12502
rthumb -8.93568 -32.7368
lclavicle -7.36901e-015 -1.51076e-014
lhumerus -34.6426 18.48 69.4806
lradius 21.7868
lwrist -10.7035
lhand -27.157 24.5649
lfingers 7.12502
lthumb -0.571718 54.5438
rfemur 7.63672 18.3173 17.0399
rtibia 8.64868
rfoot -11.8185 -22.7606
rtoes -6.00353
lfemur 6.49564 -10.0522 -19.6699
ltibia 8.59793
lfoot -10.1382 18.0453
ltoes -6.50007
704
root 0.416265 18.8346 2.50491 -3.80309 -3.87056 1.85089
lowerback 5.08551 1.39381 -2.58786
upperback 0.843929 1.68578 -1.32465
thorax -2.01671 0.854133 -0.0244397
lowerneck -3.54092 -4.21725 -6.81066
upperneck 20.4707 -6.57274 7.49113
head 7.2969 -3.07729 3.09281
rclavicle -2.32112e-014 -1.27222e-014
rhumerus -11.3592 30.8702 -79.7132
rradius 127.055
rwrist -24.1241
rhand -36.1668 -4.04857
rfingers 7.12502
rthumb -9.27074 -33.8247
lclavicle -2.32112e-014 -1.27222e-014
lhumerus -34.6363 18.432 69.5498
lradius 21.8491
lwrist -10.5808
lhand -27.5623 24.8407
lfingers 7.12502
lthumb -0.963158 54.8183
rfemur 7.73573 18.1768 17.044
rtibia 8.61807
rfoot -11.862 -22.7428
rtoes -5.95657
lfemur 6.50458 -10.1933 -19.6956
ltibia 8.63709
lfoot -10.1349 18.054
ltoes -6.56096
705
root 0.415198 18.8343 2.50625 -3.81593 -3.76785 1.86346
lowerback 5.08054 1.37544 -2.57603
upperback 0.862752 1.66215 -1.3475
thorax -1.9931 0.841916 -0.0524292
lowerneck -3.38648 -4.21746 -6.77516
upperneck 20.5257 -6.56943 7.39794
head 7.28306 -3.08351 3.05998
rclavicle -1.40578e-014 4.77083e-015
rhumerus -12.3697 30.9002 -80.345
rradius 126.5
rwrist -24.2654
rhand -36.3531 -3.85732
rfingers 7.12502
rthumb -9.45056 -33.6254
lclavicle -1.40578e-014 4.77083e-015
lhumerus -34.5904 18.7916 69.3267
lradius 21.6986
lwrist -11.3194
lhand -27.6798 24.9148
lfingers 7.12502
lthumb -1.07665 54.8919
rfemur 7.80223 18.0742 17.0429
rtibia 8.57704
rfoot -11.876 -22.7367
rtoes -5.8048
lfemur 6.47307 -10.2958 -19.7095
ltibia 8.69437
lfoot -10.1599 18.0372
ltoes -6.52779
706
root 0.414263 18.8343 2.50807 -3.80497 -3.68215 1.8593
lowerback 5.06401 1.36434 -2.55592
upperback 0.859627 1.64876 -1.36029
thorax -1.98588 0.835057 -0.0755071
lowerneck -3.22281 -4.21786 -6.69212
upperneck 20.6206 -6.56076 7.23787
head 7.27664 -3.08873 2.99801
rclavicle -1.6437e-014 1.03368e-014
rhumerus -13.3776 30.9111 -80.9794
rradius 125.911
rwrist -24.1625
rhand -36.3622 -3.52689
rfingers 7.12502
rthumb -9.45927 -33.2946
lclavicle -1.6437e-014 1.03368e-014
lhumerus -34.5048 19.0249 69.2394
lradius 21.5842
lwrist -11.6734
lhand -27.4178 25.2808
lfingers 7.12502
lthumb -0.823566 55.259
rfemur 7.86094 17.9867 17.0483
rtibia 8.50537
rfoot -11.8694 -22.7471
rtoes -5.65628
lfemur 6.3899 -10.3828 -19.6959
ltibia 8.80405
lfoot -10.2148 18.0335
ltoes -6.58621
707
root 0.412458 18.8344 2.50623 -3.8105 -3.6081 1.8298
lowerback 5.12385 1.35537 -2.52822
upperback 0.839915 1.63561 -1.35942
thorax -2.03864 0.82885 -0.0910665
lowerneck -3.00079 -4.23344 -6.60457
upperneck 20.6369 -6.56942 7.06664
head 7.23508 -3.10467 2.93102
rclavicle 3.57347e-015 -1.90833e-014
rhumerus -14.3728 30.9533 -81.6111
rradius 125.322
rwrist -24.0173
rhand -36.4705 -3.83448
rfingers 7.12502
rthumb -9.56377 -33.5974
lclavicle 3.57347e-015 -1.90833e-014
lhumerus -34.4436 19.0829 69.2466
lradius 21.6113
lwrist -11.8375
lhand -26.7204 25.9227
lfingers 7.12502
lthumb -0.150003 55.9024
rfemur 7.93149 17.9093 17.0921
rtibia 8.41798
rfoot -11.8558 -22.7588
rtoes -5.62968
lfemur 6.3038 -10.4611 -19.6479
ltibia 8.94203
lfoot -10.2498 18.032
ltoes -6.65265
708
root 0.408674 18.8354 2.49931 -3.80879 -3.53198 1.71745
lowerback 5.23474 1.33872 -2.44221
upperback 0.814446 1.61398 -1.33832
thorax -2.1247 0.818322 -0.119205
lowerneck -2.78046 -4.24114 -6.53698
upperneck 20.6384 -6.5743 6.94748
head 7.19093 -3.11615 2.88488
rclavicle 2.46151e-014 -1.70955e-014
rhumerus -15.3595 30.9672 -82.246
rradius 124.699
rwrist -23.9467
rhand -36.5713 -3.71353
rfingers 7.12502
rthumb -9.66106 -33.472
lclavicle 2.46151e-014 -1.70955e-014
lhumerus -34.3571 19.2752 69.1507
lradius 21.4835
lwrist -12.0431
lhand -26.4974 25.8642
lfingers 7.12502
lthumb 0.0653049 55.8439
rfemur 7.98153 17.8217 17.2389
rtibia 8.32566
rfoot -11.8032 -22.7273
rtoes -5.60765
lfemur 6.18776 -10.5494 -19.4933
ltibia 9.08488
lfoot -10.2229 18.033
ltoes -6.7706
709
root 0.406724 18.836 2.49596 -3.79471 -3.46958 1.64991
lowerback 5.27701 1.32092 -2.38898
upperback 0.797651 1.59166 -1.32559
thorax -2.16416 0.807231 -0.135637
lowerneck -2.51539 -4.22832 -6.482
upperneck 20.6043 -6.55349 6.84895
head 7.12639 -3.11578 2.85063
rclavicle 1.67973e-014 1.19271e-015
rhumerus -16.3191 30.9469 -82.8764
rradius 124.071
rwrist -23.8425
rhand -36.4863 -3.38235
rfingers 7.12502
rthumb -9.57903 -33.1446
lclavicle 1.67973e-014 1.19271e-015
lhumerus -34.3466 19.1923 69.2706
lradius 21.4279
lwrist -11.2897
lhand -26.9935 25.1654
lfingers 7.12502
lthumb -0.413844 55.1447
rfemur 8.04083 17.7522 17.318
rtibia 8.1949
rfoot -11.725 -22.6998
rtoes -5.68683
lfemur 6.05823 -10.6185 -19.4027
ltibia 9.2659
lfoot -10.2851 18.0365
ltoes -6.7536
710
root 0.407004 18.836 2.49869 -3.78471 -3.4458 1.6494
lowerback 5.25714 1.31989 -2.37342
upperback 0.787187 1.59154 -1.33052
thorax -2.16326 0.807104 -0.149062
lowerneck -2.23799 -4.23363 -6.42945
upperneck 20.5407 -6.55515 6.74389
head 7.05186 -3.12722 2.81311
rclavicle -1.01644e-014 3.97569e-015
rhumerus -17.2794 30.9401 -83.4922
rradius 123.418
rwrist -23.6388
rhand -36.3195 -3.38217
rfingers 7.12502
rthumb -9.41805 -33.1517
lclavicle -1.01644e-014 3.97569e-015
lhumerus -34.4956 19.2332 69.2552
lradius 21.5033
lwrist -11.1861
lhand -27.1162 25.0139
lfingers 7.12502
lthumb -0.532283 54.993
rfemur 8.11 17.7284 17.3088
rtibia 8.06226
rfoot -11.6829 -22.7452
rtoes -5.68829
lfemur 5.9686 -10.6417 -19.4069
ltibia 9.43745
lfoot -10.4182 18.0375
ltoes -6.71552
711
root 0.405035 18.8347 2.50211 -3.80637 -3.44837 1.546
lowerback 5.23626 1.32743 -2.27562
upperback 0.822592 1.60932 -1.30452
thorax -2.11348 0.814816 -0.177192
lowerneck -2.14855 -4.24073 -6.40441
upperneck 20.5849 -6.55975 6.6714
head 7.04785 -3.13462 2.78702
rclavicle -8.09426e-015 1.07344e-014
rhumerus -18.0995 30.9072 -84.0143
rradius 122.742
rwrist -23.4303
rhand -36.3407 -3.35592
rfingers 7.12502
rthumb -9.43859 -33.1246
lclavicle -8.09426e-015 1.07344e-014
lhumerus -34.5472 19.4275 69.134
lradius 21.5135
lwrist -11.6619
lhand -27.0364 25.3146
lfingers 7.12502
lthumb -0.455208 55.2938
rfemur 8.18705 17.7226 17.4429
rtibia 8.00624
rfoot -11.6984 -22.7923
rtoes -5.5494
lfemur 5.98216 -10.648 -19.2908
ltibia 9.49923
lfoot -10.484 18.0226
ltoes -6.72992
712
root 0.402863 18.8331 2.5035 -3.84875 -3.44792 1.49533
lowerback 5.32282 1.33886 -2.28135
upperback 0.811636 1.62197 -1.26204
thorax -2.17471 0.821735 -0.133644
lowerneck -2.21045 -4.24552 -6.41515
upperneck 20.8354 -6.55604 6.56768
head 7.13755 -3.13849 2.75476
rclavicle 2.79541e-017 -1.39149e-014
rhumerus -18.9416 30.8796 -84.4898
rradius 122.127
rwrist -23.3107
rhand -36.4892 -3.1278
rfingers 7.12502
rthumb -9.58187 -32.8899
lclavicle 2.79541e-017 -1.39149e-014
lhumerus -34.6069 19.4352 69.1796
lradius 21.4949
lwrist -11.6436
lhand -27.159 24.8933
lfingers 7.12502
lthumb -0.57368 54.8723
rfemur 8.23753 17.7184 17.5262
rtibia 8.01851
rfoot -11.6951 -22.8029
rtoes -5.59414
lfemur 6.06965 -10.6542 -19.2314
ltibia 9.43816
lfoot -10.4461 17.9874
ltoes -6.60823
713
root 0.40591 18.8319 2.50985 -3.91017 -3.58794 1.56696
lowerback 5.42338 1.39994 -2.39863
upperback 0.757737 1.6928 -1.21565
thorax -2.2923 0.859188 -0.029161
lowerneck -2.26812 -4.23922 -6.44508
upperneck 21.1438 -6.52306 6.38798
head 7.24215 -3.1357 2.7033
rclavicle -1.91486e-015 2.74323e-014
rhumerus -19.901 30.8987 -84.9388
rradius 121.503
rwrist -23.1508
rhand -36.6328 -3.00421
rfingers 7.12502
rthumb -9.72038 -32.7599
lclavicle -1.91486e-015 2.74323e-014
lhumerus -34.7106 20.0588 68.906
lradius 21.2047
lwrist -12.7886
lhand -26.8556 24.7589
lfingers 7.12502
lthumb -0.280632 54.7385
rfemur 8.28978 17.8678 17.4574
rtibia 8.01551
rfoot -11.6679 -22.8075
rtoes -5.76193
lfemur 6.17486 -10.5063 -19.3453
ltibia 9.44767
lfoot -10.4934 17.9638
ltoes -6.48979
714
root 0.415154 18.8294 2.53048 -4.11065 -4.09398 1.69047
lowerback 5.38742 1.57362 -2.43345
upperback 0.818298 1.92449 -1.22141
thorax -2.21492 0.973953 -0.0307523
lowerneck -2.21471 -4.2025 -6.45233
upperneck 21.2884 -6.45714 6.26509
head 7.27206 -3.1145 2.67109
rclavicle 9.76064e-016 -1.90833e-014
rhumerus -20.7316 30.9244 -85.3638
rradius 120.821
rwrist -22.8191
rhand -36.7746 -2.9228
rfingers 7.12502
rthumb -9.8572 -32.6721
lclavicle 9.76064e-016 -1.90833e-014
lhumerus -34.7066 20.5053 68.7365
lradius 20.8838
lwrist -13.4429
lhand -26.9244 25.1664
lfingers 7.12502
lthumb -0.347101 55.1459
rfemur 8.49915 18.396 17.3685
rtibia 7.94674
rfoot -11.6458 -22.7909
rtoes -5.90082
lfemur 6.50341 -9.98242 -19.5878
ltibia 9.52107
lfoot -10.7333 17.9398
ltoes -6.37427
715
root 0.403652 18.8311 2.50619 -4.154 -3.79228 1.56955
lowerback 5.82789 1.48076 -2.49391
upperback 0.753294 1.78158 -1.14979
thorax -2.52966 0.906141 0.0738125
lowerneck -2.14457 -4.17918 -6.43666
upperneck 21.3384 -6.41939 6.20079
head 7.27097 -3.10138 2.65205
rclavicle -2.26809e-014 -3.97569e-016
rhumerus -21.4109 30.9247 -85.7648
rradius 120.14
rwrist -22.518
rhand -36.8898 -2.28883
rfingers 7.12502
rthumb -9.96829 -32.0328
lclavicle -2.26809e-014 -3.97569e-016
lhumerus -34.75 20.06 69.0575
lradius 20.9683
lwrist -12.4531
lhand -27.6978 25.158
lfingers 7.12502
lthumb -1.09406 55.1349
rfemur 8.66502 18.079 17.5682
rtibia 7.70061
rfoot -11.543 -22.7526
rtoes -5.6444
lfemur 6.29497 -10.307 -19.3591
ltibia 9.73678
lfoot -10.7034 17.9388
ltoes -6.52081
